<?xml version="1.0" standalone="no"?>
<!DOCTYPE svg PUBLIC "-//W3C//DTD SVG 20010904//EN"
 "http://www.w3.org/TR/2001/REC-SVG-20010904/DTD/svg10.dtd">
<svg version="1.0" xmlns="http://www.w3.org/2000/svg"
 width="400.000000pt" height="400.000000pt" viewBox="0 0 400.000000 400.000000"
 preserveAspectRatio="xMidYMid meet">

<g transform="translate(0.000000,400.000000) scale(0.100000,-0.100000)"
fill="#000000" stroke="none">
<path d="M1767 3640 c-74 -41 -122 -140 -95 -198 16 -34 90 -72 140 -72 87 0
138 48 138 128 0 118 -93 190 -183 142z"/>
<path d="M2694 3552 c-76 -48 -121 -142 -104 -219 11 -46 80 -116 148 -150 72
-35 150 -30 192 13 53 52 69 223 27 285 -50 74 -195 113 -263 71z"/>
<path d="M827 3122 c-15 -9 -40 -41 -54 -71 -49 -100 -29 -232 40 -268 66 -34
202 5 256 73 45 57 37 138 -20 207 -59 71 -159 98 -222 59z"/>
<path d="M2144 2940 c-72 -17 -139 -78 -163 -149 -48 -146 66 -275 244 -275
76 0 113 14 155 58 33 36 40 136 15 203 -20 51 -84 127 -124 147 -36 18 -90
25 -127 16z"/>
<path d="M3104 2786 c-64 -29 -112 -131 -121 -257 l-6 -76 69 -52 69 -52 60 6
c82 9 159 45 185 87 47 78 34 131 -63 249 -81 98 -131 123 -193 95z"/>
<path d="M555 2178 c-83 -46 -126 -146 -126 -300 0 -179 64 -243 221 -219 74
12 160 43 160 58 -1 4 -7 35 -15 68 -16 67 -19 190 -6 247 8 36 7 39 -36 79
-73 67 -151 94 -198 67z"/>
<path d="M1440 2103 c-8 -3 -35 -14 -59 -24 l-44 -19 20 -23 c33 -35 43 -63
43 -113 0 -41 -5 -51 -39 -85 -35 -35 -44 -39 -90 -39 -47 0 -51 -2 -51 -23 0
-80 76 -189 164 -235 68 -36 186 -38 257 -5 60 27 125 92 152 152 29 64 30
179 1 242 -51 111 -157 180 -274 178 -36 0 -72 -3 -80 -6z m198 -141 c21 -27
15 -70 -13 -88 -50 -33 -106 11 -91 71 11 44 74 54 104 17z"/>
<path d="M2447 2096 c-141 -53 -221 -192 -195 -338 13 -73 39 -118 97 -170
165 -149 421 -75 485 142 9 29 16 57 16 62 0 4 -24 8 -54 8 -60 0 -96 21 -121
70 -27 52 -10 140 31 163 23 13 16 25 -28 48 -54 28 -175 36 -231 15z m63
-124 c43 -35 15 -112 -39 -112 -26 0 -61 38 -61 65 0 24 41 65 65 65 7 0 23
-8 35 -18z"/>
<path d="M3243 1697 c-26 -67 -61 -124 -110 -178 l-36 -40 16 -34 c21 -44 119
-121 181 -141 58 -20 127 -14 165 13 48 36 64 85 65 204 1 94 -2 111 -20 136
-31 42 -116 84 -183 90 l-57 5 -21 -55z"/>
<path d="M1775 1360 c-16 -26 69 -109 149 -146 71 -33 162 -33 233 1 57 26
153 109 153 132 0 32 -32 23 -82 -22 -68 -61 -119 -85 -187 -85 -68 0 -127 27
-189 87 -46 43 -65 52 -77 33z"/>
<path d="M1425 1134 c-68 -23 -125 -99 -125 -167 0 -60 69 -107 158 -107 66 0
108 28 122 81 22 82 -27 188 -94 201 -13 3 -41 -1 -61 -8z"/>
<path d="M2433 1079 c-26 -13 -54 -38 -72 -66 -57 -85 -53 -159 9 -227 107
-116 255 -134 317 -39 14 20 19 53 22 135 l3 108 -39 39 c-26 26 -57 44 -93
55 -71 21 -96 20 -147 -5z"/>
</g>
</svg>
